<?xml version="1.0" standalone="no"?>
<!DOCTYPE svg PUBLIC "-//W3C//DTD SVG 20010904//EN"
 "http://www.w3.org/TR/2001/REC-SVG-20010904/DTD/svg10.dtd">
<svg version="1.0" xmlns="http://www.w3.org/2000/svg"
 width="500.000000pt" height="500.000000pt" viewBox="0 0 500.000000 500.000000"
 preserveAspectRatio="xMidYMid meet">
<metadata>
Created by potrace 1.11, written by Peter Selinger 2001-2013
</metadata>
<g transform="translate(0.000000,500.000000) scale(0.100000,-0.100000)"
fill="#000000" stroke="none">
<path d="M845 3378 c-13 -10 -61 -69 -106 -131 -46 -61 -86 -114 -89 -117 -4
-3 -11 -12 -16 -21 -5 -9 -21 -32 -36 -50 -22 -28 -233 -308 -303 -403 -11
-15 -37 -50 -58 -78 -42 -57 -52 -84 -40 -114 14 -36 627 -851 649 -864 17
-10 411 -12 1754 -12 l1732 0 25 25 25 25 0 823 c-1 453 -1 836 -1 851 -1 15
-12 40 -25 55 l-24 28 -1732 1 c-1673 1 -1732 0 -1755 -18z m-151 -800 c109
-95 0 -254 -134 -198 -78 33 -88 146 -19 205 46 38 104 35 153 -7z"/>
<path d="M4402 2676 c-8 -12 -8 -436 1 -458 4 -11 66 -16 120 -9 4 1 7 70 7
154 0 149 1 154 24 176 37 35 86 38 119 7 30 -27 30 -35 27 -238 -1 -109 -8
-100 75 -100 19 0 41 0 48 1 21 2 16 335 -5 376 -46 88 -168 127 -255 81 -30
-15 -33 -15 -45 2 -15 21 -103 27 -116 8z"/>
</g>
</svg>
