<svg xmlns="http://www.w3.org/2000/svg" xmlns:xlink="http://www.w3.org/1999/xlink" version="1.1" x="0px" y="0px" viewBox="0 0 100 125" enable-background="new 0 0 100 100" xml:space="preserve"><path d="M89.7,18.7c0-0.4-0.3-0.7-0.6-0.7l-15.6-3.1c0,0,0,0,0,0l-23.5-4.7c-0.1,0-0.2,0-0.3,0l-23.5,4.7c0,0,0,0,0,0l-15.6,3.1  c-0.4,0.1-0.6,0.4-0.6,0.8l0,18.8c0,0.2,0.1,0.4,0.2,0.6c0.1,0.1,0.3,0.2,0.6,0.2l14.9,0v2.6v48.2c0,0.4,0.4,0.8,0.8,0.8h46.9  c0.4,0,0.8-0.4,0.8-0.8V40.9v-2.6l15.3,0c0.2,0,0.4-0.1,0.6-0.2c0.1-0.2,0.2-0.4,0.2-0.6L89.7,18.7z M49.8,11.7L62,14.1  c-1.5,5.5-6.5,9.4-12.2,9.4c-5.7,0-10.8-3.9-12.2-9.4L49.8,11.7z M11.4,36.7l0-17.4l14.1-2.8v20.2L11.4,36.7z M72.5,88.3H27.1V40.9  v-3.4V16.2l8.9-1.8c1.6,6.2,7.3,10.7,13.8,10.7c6.5,0,12.2-4.4,13.8-10.7l8.9,1.8v21.3v3.4V88.3z M74,36.7V16.5l14.1,2.8l0.4,17.3  L74,36.7z"/></svg>