<svg xmlns="http://www.w3.org/2000/svg" xmlns:xlink="http://www.w3.org/1999/xlink" version="1.1" x="0px" y="0px" viewBox="0 0 100 125" enable-background="new 0 0 100 100" xml:space="preserve"><g><path d="M83.1,10.8c0-0.4-0.4-0.8-0.8-0.8H19.5c-0.4,0-0.8,0.3-0.8,0.8l-5.3,78.7c0,0.2,0.1,0.5,0.2,0.6c0.2,0.2,0.4,0.3,0.6,0.3   h72.7c0.2,0,0.5-0.1,0.6-0.3c0.2-0.2,0.2-0.4,0.2-0.6L83.1,10.8z M15.1,88.7l5.2-77h61.2l4.5,77H15.1z"/><path d="M66.5,16.3c-0.5,0-0.8,0.4-0.8,0.8v10.3c0,4.8-2.3,9.1-5.9,11.9l-3-5.3c-0.2-0.4-0.6-0.5-1-0.4l-11.5,4.2   c-0.2,0.1-0.4,0.3-0.5,0.5L43,40.1c-4.4-2.7-7-7.5-7-12.6V17.2c0-0.5-0.4-0.8-0.8-0.8c-0.5,0-0.8,0.4-0.8,0.8v10.3   c0,5.9,3.1,11.3,8.1,14.2l-7.6,20.8c-0.1,0.2-0.1,0.4,0,0.6c0.1,0.2,0.3,0.4,0.5,0.4L52.9,70C53,70,53,70,53.1,70   c0.3,0,0.7-0.2,0.8-0.6l8.8-24.1c0.1-0.2,0.1-0.5-0.1-0.7l-2.2-3.8c4.1-3,6.8-7.9,6.8-13.3V17.2C67.3,16.7,66.9,16.3,66.5,16.3z    M61.1,45.1l-8.4,23l-15.9-5.8l8.4-23l10.4-3.8l2.7,4.8c-0.7,0.4-1.5,0.8-2.3,1.1c-0.5-0.7-1.2-1.2-2-1.6c-0.5-0.2-1-0.3-1.5-0.3   c-1.8,0-3.4,1.1-4,2.8c-0.8,2.2,0.3,4.7,2.5,5.5c0.5,0.2,1,0.3,1.5,0.3c1.8,0,3.4-1.1,4-2.8c0.3-0.8,0.3-1.6,0.2-2.4   c0.9-0.3,1.7-0.7,2.5-1.2L61.1,45.1z M54.9,44.7c-0.4,1-1.4,1.7-2.4,1.7c-0.3,0-0.6-0.1-0.9-0.2c-1-0.4-1.6-1.3-1.7-2.3   c0.3,0,0.6,0,0.9,0c1.5,0,2.9-0.2,4.2-0.6C55.1,43.8,55.1,44.3,54.9,44.7z M50.8,42.3c-0.1,0-0.3,0-0.4,0c0.5-0.7,1.3-1.1,2.1-1.1   c0.3,0,0.6,0.1,0.9,0.2c0.3,0.1,0.6,0.3,0.8,0.5C53.1,42.2,52,42.3,50.8,42.3z"/></g></svg>